<svg viewBox="0 0 200 200" xmlns="http://www.w3.org/2000/svg" fill-rule="evenodd" clip-rule="evenodd" stroke-linejoin="round" stroke-miterlimit="2"><circle cx="4921.92" cy="1019.87" r="730.131" fill="#fff" transform="translate(-574.114 -39.683) scale(.13696)"/><path d="M99.351 117.602c17.025 0 33.642 7.849 33.525 28.077-.202 34.644-16.5 45.23-33.525 45.23-17.024 0-32.104-17.003-32.104-46.307 0-20.228 15.08-27 32.104-27zm.849 20.578c12.563 0 23.83-1.698 23.83 3.083 0 4.782-10.491 8.268-23.054 8.268-12.562 0-23.053-4.145-23.053-8.927s9.715-2.424 22.277-2.424zM37.763 86.59c-2.708.607-4.824 6.557-1.516 14.334 2.746 6.455 4.894 7.583 9.725 21.929 1.26-7.673-2.271-8.256-2.06-18.6.3-14.608-3.442-18.268-6.149-17.662zm124.474 0c2.708.607 4.825 6.557 1.517 14.334-2.747 6.455-4.895 7.583-9.725 21.929-1.261-7.673 2.272-8.256 2.058-18.6-.298-14.608 3.443-18.268 6.15-17.662zm-4.347-.066c-.01.007-.88.913-1.604 2.075-1.67-.01-2.915 0-2.915 0 .38 1.955.336 4.002.056 5.86-1.662 11.074-4.286 14.416-21.146 14.614-12.66.15-24.732-5.75-24.732-14.613 0-2.171-.383-4.418-.047-6.446-3.321-2.183-13.651-1.735-16.492-.027.07 2.7-.113 3.976-.113 5.984 0 8.864-12.073 14.762-24.732 14.614-16.859-.199-19.483-3.54-21.146-14.614-.296-1.974-.33-4.158.132-6.22 0 0 0 .02-1.684 0-.338-1.328-1.233-2.075-1.233-2.075h3.579c.657-1.54 1.676-2.93 3.172-4.002 4.34-3.11 12.408-3.764 18.973-3.764 7.572 0 18.653 2.537 22.672 7.54 3.905-2.257 13.745-2.473 17.464.174 5.517-6.592 14.823-7.225 22.394-7.225 6.565 0 14.633.653 18.974 3.764 1.61 1.156 2.67 2.679 3.318 4.361h5.11zm-38.367-4.157c1.09 0-4.317 3.249-4.317 7.706 0 4.458.349 9.07-.74 9.07-1.09 0-2.838-5.106-2.838-9.563 0-4.458 6.806-7.213 7.895-7.213zm-63.16-.494c1.089 0-3.701 3.496-3.701 7.953 0 4.458-.021 9.187-1.11 9.187-1.09 0-2.221-5.84-2.221-10.297 0-4.457 5.942-6.843 7.031-6.843zm43.699-72.782c32.408 0 58.718 27.263 58.718 60.843 0 23.53-3.464-20.495-24.035-37.14-9.055-7.327-14.874 4.9-33.045 4.937-16.607.032-24.381-12.213-32.89-6.262-25.605 17.907-27.467 62.976-27.467 38.465 0-33.58 26.31-60.843 58.719-60.843z"/><path d="M124.726 178.357c-2.387 3.415-5.48 6.386-9.09 8.483-4.317 2.506-9.299 3.77-14.295 4.02-3.653.182-7.28-.252-10.67-1.484-5.478-1.993-10.117-5.827-13.643-10.485A82.111 82.111 0 00100 182.15a82.007 82.007 0 0024.727-3.794zM45.748 27.067c-5.26 7.105-9.151 15.183-11.498 23.698C23.952 64.49 17.85 81.538 17.85 100c0 31.949 18.278 59.663 44.938 73.246 1.887 4.543 4.393 8.867 7.467 12.677C34.668 173.591 9.09 139.76 9.09 100c0-29.848 14.415-56.355 36.658-72.934zm108.645.107c22.161 16.585 36.515 43.042 36.515 72.826 0 39.02-24.639 72.333-59.192 85.214a41.824 41.824 0 002.89-4.334 51.068 51.068 0 003.83-8.27c25.993-13.8 43.713-41.152 43.713-72.61 0-18.308-6.002-35.225-16.144-48.89a61.852 61.852 0 00-.428-1.535c-2.354-8.049-6.181-15.663-11.184-22.401zM100.097 9.09h.113c9.834.034 19.78 2.696 28.373 7.658 6.649 3.84 12.449 8.989 17.134 15.005-13.073-8.78-28.801-13.904-45.718-13.904-16.823 0-32.472 5.067-45.502 13.758a59.754 59.754 0 0110.51-10.478C74.982 13.424 87.43 9.122 99.966 9.091h.132z"/></svg>